<svg xmlns="http://www.w3.org/2000/svg" viewBox="0 0 200 260" role="img" aria-label="Cartoon angler mascot">
  <ellipse cx="100" cy="248" rx="72" ry="10" fill="#1a3a5c" opacity=".15"/>
  <path d="M58 120c-8 42 6 88 42 108 36-20 50-66 42-108-12 8-28 12-42 12s-30-4-42-12z" fill="#e85d4c" stroke="#1a3a5c" stroke-width="4"/>
  <path d="M70 118c6-18 22-28 30-28s24 10 30 28" fill="#f4c89a" stroke="#1a3a5c" stroke-width="4"/>
  <circle cx="100" cy="72" r="34" fill="#f4c89a" stroke="#1a3a5c" stroke-width="4"/>
  <path d="M66 62c8-18 28-24 34-24s26 6 34 24" fill="#5c3d2e" stroke="#1a3a5c" stroke-width="3"/>
  <circle cx="88" cy="74" r="5" fill="#1a3a5c"/>
  <circle cx="112" cy="74" r="5" fill="#1a3a5c"/>
  <path d="M92 88q8 8 16 0" fill="none" stroke="#1a3a5c" stroke-width="3" stroke-linecap="round"/>
  <path d="M68 78c-16-4-28 2-34 14" fill="none" stroke="#1a3a5c" stroke-width="4" stroke-linecap="round"/>
  <path d="M132 78c16-4 28 2 34 14" fill="none" stroke="#1a3a5c" stroke-width="4" stroke-linecap="round"/>
  <path d="M118 52l28-18 8 10-22 16z" fill="#2a7b88" stroke="#1a3a5c" stroke-width="3"/>
  <rect x="118" y="130" width="62" height="10" rx="4" fill="#8b6914" stroke="#1a3a5c" stroke-width="3" transform="rotate(28 118 135)"/>
  <path d="M172 118c18 8 24 24 18 38-8 2-16 0-22-6" fill="none" stroke="#6b4f2a" stroke-width="5" stroke-linecap="round"/>
  <path d="M40 150c-18 10-24 28-14 42 10-2 18-8 22-18" fill="none" stroke="#6b4f2a" stroke-width="5" stroke-linecap="round"/>
  <path d="M150 92c28-6 44 8 48 28-10 6-22 8-34 4" fill="#c9e8ef" stroke="#1a3a5c" stroke-width="3"/>
  <path d="M152 108c18 14 16 34 0 48" fill="none" stroke="#1a3a5c" stroke-width="3"/>
  <circle cx="152" cy="156" r="6" fill="#e8a838" stroke="#1a3a5c" stroke-width="2"/>
</svg>
