<svg xmlns="http://www.w3.org/2000/svg" viewBox="0 0 240 120" role="img" aria-label="Cartoon trout mascot">
  <ellipse cx="120" cy="108" rx="90" ry="8" fill="#1a3a5c" opacity=".12"/>
  <path d="M28 60c20-28 56-42 92-38 36 4 68 28 78 58-18 8-38 12-58 12s-44-4-72-16c-8-6-14-12-18-16z" fill="#2a7b88" stroke="#1a3a5c" stroke-width="4"/>
  <path d="M28 60c-16 4-24 14-22 26 2 12 14 20 30 20" fill="#248f72" stroke="#1a3a5c" stroke-width="4"/>
  <circle cx="156" cy="48" r="10" fill="#fff" stroke="#1a3a5c" stroke-width="3"/>
  <circle cx="159" cy="48" r="4" fill="#1a3a5c"/>
  <path d="M170 54c8 6 12 14 10 22" fill="none" stroke="#1a3a5c" stroke-width="3" stroke-linecap="round"/>
  <path d="M92 72c-8 10-8 22 0 30" fill="none" stroke="#1a3a5c" stroke-width="3" stroke-linecap="round"/>
  <path d="M118 72c0 12 0 24 0 30" fill="none" stroke="#1a3a5c" stroke-width="3" stroke-linecap="round"/>
  <path d="M144 70c8 10 8 22 0 30" fill="none" stroke="#1a3a5c" stroke-width="3" stroke-linecap="round"/>
  <path d="M186 42l34-18 8 12-28 20z" fill="#e8a838" stroke="#1a3a5c" stroke-width="3"/>
  <path d="M64 44c-10-8-18-6-24 2" fill="none" stroke="#e85d4c" stroke-width="4" stroke-linecap="round"/>
</svg>
